# xmcd
#
# Track frame offsets:
#	182
#	9495
#	21995
#	33617
#	53440
#	66782
#	81812
#	94565
#	111255
#	127422
#	142282
#	157607
#	172132
#	187972
#	197212
#	206997
#	219510
#	231382
#
# Disc length: 3300
#
# Revision: 2
# Processed by: cddbd v1.5.1PL0 Copyright (c) Steve Scherf et al.
# Submitted via: CDex 1.50
# Normalized: r0:DSETVAR1,TDELIM( - ),TSWAP
#
DISCID=090ce212
DTITLE=Various Artist - Totally Country Guitar
DYEAR=1997
DGENRE=Country
TTITLE0=Chet Atkins - Yakety Axe
TTITLE1=Larry Gatlin - Take Me To Your Lovin' Place
TTITLE2=Steve Earle - Guitar Town
TTITLE3=Gram Parsons - Return Of The Grievous Angel
TTITLE4=Merle Haggard - Everybody's Had The Blues
TTITLE5=Emmylou Harris - Blue Kentucky Girl
TTITLE6=John Anderson - Wild And Blue
TTITLE7=Alabama (Randy Owen) - Touch Me When We're Dancing
TTITLE8=Ricky Skaggs - Love's Gonne Get You Some Day
TTITLE9=Waylon Jennings - Luckenbach, Texas (Back To The Basics Of Love)
TTITLE10=Mary Chapin Carpenter - Down At The Twist And Shout
TTITLE11=Don Williams - Another Place, Another Time
TTITLE12=Jerry Reed - Down On The Corner
TTITLE13=Scotty Moore - Don't Be Cruel
TTITLE14=Hank Thompson - A Six Pack To Go
TTITLE15=Hank Snow - Hello Love
TTITLE16=(Nick Cane) - Hey Good Lookin' Mavericks
TTITLE17=Randy Travis - Forever And Ever, Amen
EXTD=YEAR: 1997
EXTT0=
EXTT1=
EXTT2=
EXTT3=
EXTT4=
EXTT5=
EXTT6=
EXTT7=
EXTT8=
EXTT9=
EXTT10=
EXTT11=
EXTT12=
EXTT13=
EXTT14=
EXTT15=
EXTT16=
EXTT17=
PLAYORDER=
